<svg width="28" height="26" viewBox="0 0 28 26" fill="none" xmlns="http://www.w3.org/2000/svg">
<path d="M5.39002 15.5281L17.4172 24.5189C18.3181 25.1923 19.4709 25.3931 20.1362 24.9102C20.2652 24.8106 20.3793 24.6998 20.4786 24.5669L21.8432 22.7415C22.1065 22.3893 21.9871 21.8184 21.5366 21.4087C19.906 19.9266 19.8693 17.5857 22.1149 17.2535C22.762 17.1603 23.5046 17.4297 24.1836 17.8365C24.4389 17.9873 24.7184 18.0629 24.9714 18.0497C25.2245 18.0366 25.4346 17.9354 25.5636 17.7646L26.9255 15.9428C27.0249 15.8098 27.0989 15.6691 27.1529 15.5134C27.4278 14.7387 26.9139 13.6935 26.013 13.0201L13.9858 4.0293L5.39002 15.5281Z" fill="#F9423A"/>
<path d="M20.4127 17.7959C21.2239 16.7107 22.992 16.6265 24.5232 17.5415C24.6474 17.6155 24.7844 17.652 24.909 17.6443C25.0336 17.6366 25.1375 17.5852 25.2015 17.4996L26.5661 15.6742C27.1597 14.88 26.7665 13.5834 25.6873 12.7766L10.549 1.46019C9.46981 0.653434 8.11487 0.643213 7.52123 1.43735L6.15664 3.26278C6.02502 3.43886 6.088 3.72119 6.30847 3.92522C7.61938 5.13484 8.039 6.85448 7.22777 7.93967C6.41654 9.02487 4.64845 9.1091 3.11728 8.19415C2.99302 8.12014 2.85602 8.08363 2.73142 8.09132C2.60681 8.09901 2.50297 8.15038 2.43895 8.23601L1.07436 10.0614C0.480714 10.8556 0.873996 12.1522 1.95321 12.959L17.0914 24.2754C18.1706 25.0822 19.5256 25.0924 20.1192 24.2983L21.4838 22.4728C21.5478 22.3872 21.5677 22.2731 21.5398 22.1514C21.5119 22.0297 21.4381 21.9086 21.332 21.8104C20.6892 21.2149 20.2425 20.4812 20.0737 19.7439C19.9048 19.0066 20.0252 18.315 20.4127 17.7959Z" fill="url(#paint0_linear_1572_7)"/>
<path d="M13.9177 6.21874L12.1929 4.92937L11.387 6.00738L13.1118 7.29675L13.9177 6.21874Z" fill="white"/>
<path d="M11.2312 9.81212L9.50635 8.52275L8.70049 9.60076L10.4253 10.8901L11.2312 9.81212Z" fill="white"/>
<path d="M8.54513 13.4055L6.82031 12.1161L6.01445 13.1941L7.73927 14.4835L8.54513 13.4055Z" fill="white"/>
<path d="M13.4429 9.29458L14.2446 9.89389L10.9846 14.2548L10.1829 13.6555L13.4429 9.29458ZM13.9571 12.5123L13.4973 13.1274L12.0252 12.027L12.485 11.4119L13.9571 12.5123ZM15.5163 10.8445L15.0616 11.4527L13.3477 10.1714L13.8023 9.56324L15.5163 10.8445ZM12.7662 14.6386L12.3116 15.2468L10.5423 13.9242L10.997 13.316L12.7662 14.6386ZM14.3987 15.5681L15.0962 14.6351C15.1513 14.5613 15.1736 14.5026 15.1632 14.4589C15.1562 14.4106 15.1159 14.3589 15.0421 14.3038L14.4823 13.8853C14.2243 13.6924 14.0848 13.4948 14.0638 13.2923C14.0508 13.0887 14.1252 12.8786 14.2871 12.6621L15.0879 11.5908C15.2498 11.3743 15.4331 11.2492 15.6378 11.2155C15.8426 11.1818 16.0786 11.2648 16.3458 11.4646L17.106 12.0329C17.3686 12.2292 17.5128 12.4303 17.5384 12.6362C17.5687 12.8456 17.5028 13.0585 17.341 13.2751L16.8863 13.8833L16.0846 13.284L16.4566 12.7863C16.5117 12.7126 16.5341 12.6539 16.5236 12.6102C16.5213 12.5653 16.4809 12.5136 16.4026 12.4551L16.14 12.2588C16.0616 12.2002 15.9983 12.1744 15.95 12.1814C15.9051 12.1838 15.8551 12.2218 15.8 12.2955L15.1439 13.1733C15.0922 13.2424 15.0699 13.3011 15.0769 13.3494C15.0839 13.3977 15.1265 13.4511 15.2048 13.5097L15.7508 13.9178C16.0134 14.1142 16.1553 14.3135 16.1763 14.516C16.2008 14.7139 16.1321 14.9211 15.9702 15.1376L15.1177 16.2779C14.9559 16.4945 14.7702 16.6179 14.5609 16.6481C14.3562 16.6818 14.1202 16.5988 13.8529 16.399L13.1065 15.841C12.8393 15.6413 12.6906 15.4367 12.6603 15.2274C12.6347 15.0215 12.7028 14.8103 12.8647 14.5937L13.3142 13.9924L14.1089 14.5866L13.7421 15.0773C13.6905 15.1464 13.6681 15.2051 13.6751 15.2534C13.6821 15.3017 13.7247 15.3551 13.8031 15.4137L14.0657 15.61C14.1394 15.6651 14.2004 15.6892 14.2487 15.6822C14.297 15.6752 14.347 15.6372 14.3987 15.5681ZM18.1919 15.9042L19.065 14.7362C19.1201 14.6625 19.1424 14.6038 19.132 14.5601C19.1296 14.5152 19.0893 14.4635 19.011 14.405L17.8222 13.5163L18.2769 12.9082L19.7006 13.9724C19.9678 14.1722 20.1142 14.375 20.1399 14.5809C20.1701 14.7903 20.1043 15.0032 19.9424 15.2198L18.904 16.6089C18.7421 16.8255 18.5565 16.9489 18.3471 16.9791C18.1424 17.0128 17.9064 16.9298 17.6392 16.73L16.3744 15.7845L16.8291 15.1764L17.8589 15.9462C17.9372 16.0047 17.9982 16.0288 18.0419 16.0183C18.0902 16.0114 18.1402 15.9733 18.1919 15.9042ZM18.0972 12.7738L18.892 13.368L15.632 17.7289L14.8372 17.1348L18.0972 12.7738Z" fill="#F4CE14"/>
<defs>
<linearGradient id="paint0_linear_1572_7" x1="18.1181" y1="7.11841" x2="9.52232" y2="18.6172" gradientUnits="userSpaceOnUse">
<stop stop-color="#FB791B"/>
<stop offset="0.849" stop-color="#FC4F46"/>
</linearGradient>
</defs>
</svg>
